<svg width="14" height="14" viewBox="0 0 14 14" fill="none" xmlns="http://www.w3.org/2000/svg">
<g clip-path="url(#clip0_8_2)">
<path d="M14 10.5563V4.04187L10.2637 7.29922L14 10.5563Z" fill="#78A942"/>
<path d="M11.8252 0H2.17476C0.973766 0 0 0.973738 0 2.17476V2.23847L6.2312 7.67085C6.45315 7.86357 6.72448 7.95862 7 7.95889C7.27557 7.95862 7.54742 7.86357 7.76882 7.67085L14 2.23847V2.17476C14 0.973738 13.0263 0 11.8252 0Z" fill="#78A942"/>
<path d="M8.66185 8.69558C8.18719 9.10998 7.59145 9.31864 6.99997 9.31815C6.40853 9.31867 5.81331 9.10976 5.33813 8.69558L4.77056 8.20074L0.0562744 12.3105C0.277157 13.2777 1.14097 14 2.17473 14H11.8252C12.8595 14 13.7228 13.2777 13.9437 12.3105L9.22942 8.20074L8.66185 8.69558Z" fill="#78A942"/>
<path d="M0 4.04187V10.5563L3.7363 7.29895L0 4.04187Z" fill="#78A942"/>
</g>
<defs>
<clipPath id="clip0_8_2">
<rect width="14" height="14" fill="white"/>
</clipPath>
</defs>
</svg>
