<svg width="15" height="15" viewBox="0 0 15 15" fill="none" xmlns="http://www.w3.org/2000/svg">
<path fill-rule="evenodd" clip-rule="evenodd" d="M2.85946 6.60708V5.22084C2.85946 2.70562 4.89845 0.666626 7.41367 0.666626C9.92888 0.666626 11.9679 2.70562 11.9679 5.22084V6.60708C12.72 6.66328 13.2098 6.80504 13.5678 7.1631C14.1607 7.75596 14.1607 8.71011 14.1607 10.6184C14.1607 12.5268 14.1607 13.4809 13.5678 14.0738C12.9749 14.6666 12.0208 14.6666 10.1125 14.6666H4.71488C2.80654 14.6666 1.85238 14.6666 1.25953 14.0738C0.666687 13.4809 0.666687 12.5268 0.666687 10.6184C0.666687 8.71011 0.666687 7.75596 1.25953 7.1631C1.61755 6.80504 2.10734 6.66328 2.85946 6.60708ZM3.87151 5.22084C3.87151 3.26456 5.45739 1.67867 7.41367 1.67867C9.36996 1.67867 10.9558 3.26456 10.9558 5.22084V6.57267C10.6974 6.57024 10.4171 6.57024 10.1125 6.57024H4.71488C4.41025 6.57024 4.12992 6.57024 3.87151 6.57267V5.22084ZM7.41367 8.76301C7.69313 8.76301 7.9197 8.98958 7.9197 9.26904V11.9678C7.9197 12.2473 7.69313 12.4739 7.41367 12.4739C7.13421 12.4739 6.90765 12.2473 6.90765 11.9678V9.26904C6.90765 8.98958 7.13421 8.76301 7.41367 8.76301Z" fill="#78A942"/>
</svg>
